HIERARCHY
ROOT Hips
{
    OFFSET 0.000000 0.000000 0.000000
    CHANNELS 6 Xposition Yposition Zposition Zrotation Xrotation Yrotation
    JOINT Spine
    {
        OFFSET -0.000000 7.305679 0.000000
        CHANNELS 3 Zrotation Xrotation Yrotation
        JOINT Spine1
        {
            OFFSET -0.000000 20.356625 0.000000
            CHANNELS 3 Zrotation Xrotation Yrotation
            JOINT Neck
            {
                OFFSET -0.000000 22.138498 0.000000
                CHANNELS 3 Zrotation Xrotation Yrotation
                JOINT Head
                {
                    OFFSET -0.000000 13.809516 1.781873
                    CHANNELS 3 Zrotation Xrotation Yrotation
                    End Site
                    {
                        OFFSET -0.000000 17.818729 0.000000
                    }
                }
            }
            JOINT LeftShoulder
            {
                OFFSET 3.599131 17.989975 0.023592
                CHANNELS 3 Zrotation Xrotation Yrotation
                JOINT LeftArm
                {
                    OFFSET 12.560995 0.000000 0.000000
                    CHANNELS 3 Zrotation Xrotation Yrotation
                    JOINT LeftForeArm
                    {
                        OFFSET 22.903347 0.000000 0.000000
                        CHANNELS 3 Zrotation Xrotation Yrotation
                        JOINT LeftHand
                        {
                            OFFSET 21.865294 0.000000 0.000000
                            CHANNELS 3 Zrotation Xrotation Yrotation
                            JOINT LeftHandThumb1
                            {
                                OFFSET 1.853706 -2.106484 2.949078
                                CHANNELS 3 Zrotation Xrotation Yrotation
                                JOINT LeftHandThumb2
                                {
                                    OFFSET 2.049154 0.000000 1.336405
                                    CHANNELS 3 Zrotation Xrotation Yrotation
                                    JOINT LeftHandThumb3
                                    {
                                        OFFSET 2.672809 0.000000 0.000000
                                        CHANNELS 3 Zrotation Xrotation Yrotation
                                        End Site
                                        {
                                            OFFSET 2.381303 0.000000 0.000000
                                        }
                                    }
                                }
                            }
                            JOINT LeftHandIndex1
                            {
                                OFFSET 7.583345 0.000000 2.949078
                                CHANNELS 3 Zrotation Xrotation Yrotation
                                JOINT LeftHandIndex2
                                {
                                    OFFSET 4.454682 0.000000 0.000000
                                    CHANNELS 3 Zrotation Xrotation Yrotation
                                    JOINT LeftHandIndex3
                                    {
                                        OFFSET 2.227341 0.000000 0.000000
                                        CHANNELS 3 Zrotation Xrotation Yrotation
                                        End Site
                                        {
                                            OFFSET 1.984419 0.000000 0.000000
                                        }
                                    }
                                }
                            }
                            JOINT LeftHandMiddle1
                            {
                                OFFSET 7.583345 0.000000 0.977409
                                CHANNELS 3 Zrotation Xrotation Yrotation
                                JOINT LeftHandMiddle2
                                {
                                    OFFSET 4.900151 0.000000 0.000000
                                    CHANNELS 3 Zrotation Xrotation Yrotation
                                    JOINT LeftHandMiddle3
                                    {
                                        OFFSET 2.672809 0.000000 0.000000
                                        CHANNELS 3 Zrotation Xrotation Yrotation
                                        End Site
                                        {
                                            OFFSET 2.381303 0.000000 0.000000
                                        }
                                    }
                                }
                            }
                            JOINT LeftHandRing1
                            {
                                OFFSET 7.162047 0.000000 -0.977409
                                CHANNELS 3 Zrotation Xrotation Yrotation
                                JOINT LeftHandRing2
                                {
                                    OFFSET 4.454682 0.000000 0.000000
                                    CHANNELS 3 Zrotation Xrotation Yrotation
                                    JOINT LeftHandRing3
                                    {
                                        OFFSET 2.227341 0.000000 0.000000
                                        CHANNELS 3 Zrotation Xrotation Yrotation
                                        End Site
                                        {
                                            OFFSET 1.984419 0.000000 0.000000
                                        }
                                    }
                                }
                            }
                            JOINT LeftHandPinky1
                            {
                                OFFSET 6.740750 0.000000 -2.949078
                                CHANNELS 3 Zrotation Xrotation Yrotation
                                JOINT LeftHandPinky2
                                {
                                    OFFSET 3.563746 0.000000 0.000000
                                    CHANNELS 3 Zrotation Xrotation Yrotation
                                    JOINT LeftHandPinky3
                                    {
                                        OFFSET 1.781873 0.000000 0.000000
                                        CHANNELS 3 Zrotation Xrotation Yrotation
                                        End Site
                                        {
                                            OFFSET 1.587536 0.000000 0.000000
                                        }
                                    }
                                }
                            }
                        }
                    }
                }
            }
            JOINT RightShoulder
            {
                OFFSET -3.506995 17.989975 0.023592
                CHANNELS 3 Zrotation Xrotation Yrotation
                JOINT RightArm
                {
                    OFFSET -12.560995 0.000000 0.000000
                    CHANNELS 3 Zrotation Xrotation Yrotation
                    JOINT RightForeArm
                    {
                        OFFSET -22.903347 0.000000 0.000000
                        CHANNELS 3 Zrotation Xrotation Yrotation
                        JOINT RightHand
                        {
                            OFFSET -21.865294 0.000000 0.000000
                            CHANNELS 3 Zrotation Xrotation Yrotation
                            JOINT RightHandThumb1
                            {
                                OFFSET -1.853706 -2.106484 2.949078
                                CHANNELS 3 Zrotation Xrotation Yrotation
                                JOINT RightHandThumb2
                                {
                                    OFFSET -2.049154 0.000000 1.336405
                                    CHANNELS 3 Zrotation Xrotation Yrotation
                                    JOINT RightHandThumb3
                                    {
                                        OFFSET -2.672809 0.000000 0.000000
                                        CHANNELS 3 Zrotation Xrotation Yrotation
                                        End Site
                                        {
                                            OFFSET -2.381303 0.000000 0.000000
                                        }
                                    }
                                }
                            }
                            JOINT RightHandIndex1
                            {
                                OFFSET -7.583345 0.000000 2.949078
                                CHANNELS 3 Zrotation Xrotation Yrotation
                                JOINT RightHandIndex2
                                {
                                    OFFSET -4.454682 0.000000 0.000000
                                    CHANNELS 3 Zrotation Xrotation Yrotation
                                    JOINT RightHandIndex3
                                    {
                                        OFFSET -2.227341 0.000000 0.000000
                                        CHANNELS 3 Zrotation Xrotation Yrotation
                                        End Site
                                        {
                                            OFFSET -1.984419 0.000000 0.000000
                                        }
                                    }
                                }
                            }
                            JOINT RightHandMiddle1
                            {
                                OFFSET -7.583345 0.000000 0.977409
                                CHANNELS 3 Zrotation Xrotation Yrotation
                                JOINT RightHandMiddle2
                                {
                                    OFFSET -4.900151 0.000000 0.000000
                                    CHANNELS 3 Zrotation Xrotation Yrotation
                                    JOINT RightHandMiddle3
                                    {
                                        OFFSET -2.672809 0.000000 0.000000
                                        CHANNELS 3 Zrotation Xrotation Yrotation
                                        End Site
                                        {
                                            OFFSET -2.381303 0.000000 0.000000
                                        }
                                    }
                                }
                            }
                            JOINT RightHandRing1
                            {
                                OFFSET -7.162047 0.000000 -0.977409
                                CHANNELS 3 Zrotation Xrotation Yrotation
                                JOINT RightHandRing2
                                {
                                    OFFSET -4.454682 0.000000 0.000000
                                    CHANNELS 3 Zrotation Xrotation Yrotation
                                    JOINT RightHandRing3
                                    {
                                        OFFSET -2.227341 0.000000 0.000000
                                        CHANNELS 3 Zrotation Xrotation Yrotation
                                        End Site
                                        {
                                            OFFSET -1.984419 0.000000 0.000000
                                        }
                                    }
                                }
                            }
                            JOINT RightHandPinky1
                            {
                                OFFSET -6.740750 0.000000 -2.949078
                                CHANNELS 3 Zrotation Xrotation Yrotation
                                JOINT RightHandPinky2
                                {
                                    OFFSET -3.563746 0.000000 0.000000
                                    CHANNELS 3 Zrotation Xrotation Yrotation
                                    JOINT RightHandPinky3
                                    {
                                        OFFSET -1.781873 0.000000 0.000000
                                        CHANNELS 3 Zrotation Xrotation Yrotation
                                        End Site
                                        {
                                            OFFSET -1.587536 0.000000 0.000000
                                        }
                                    }
                                }
                            }
                        }
                    }
                }
            }
        }
    }
    JOINT LeftUpLeg
    {
        OFFSET 8.909365 0.000000 0.000000
        CHANNELS 3 Zrotation Xrotation Yrotation
        JOINT LeftLeg
        {
            OFFSET -0.000000 -38.765560 0.000000
            CHANNELS 3 Zrotation Xrotation Yrotation
            JOINT LeftFoot
            {
                OFFSET -0.000000 -35.244961 0.000000
                CHANNELS 3 Zrotation Xrotation Yrotation
                JOINT LeftToeBase
                {
                    OFFSET -0.000000 -5.791087 13.364048
                    CHANNELS 3 Zrotation Xrotation Yrotation
                    End Site
                    {
                        OFFSET -0.000000 0.000000 3.563746
                    }
                }
            }
        }
    }
    JOINT RightUpLeg
    {
        OFFSET -8.909365 0.000000 0.000000
        CHANNELS 3 Zrotation Xrotation Yrotation
        JOINT RightLeg
        {
            OFFSET -0.000000 -38.765560 0.000000
            CHANNELS 3 Zrotation Xrotation Yrotation
            JOINT RightFoot
            {
                OFFSET -0.000000 -35.244961 0.000000
                CHANNELS 3 Zrotation Xrotation Yrotation
                JOINT RightToeBase
                {
                    OFFSET -0.000000 -5.791087 13.364048
                    CHANNELS 3 Zrotation Xrotation Yrotation
                    End Site
                    {
                        OFFSET -0.000000 0.000000 3.563746
                    }
                }
            }
        }
    }
}
MOTION
Frames:    4
Frame Time:    0.008333
0.427284    81.379761    105.642319    0.061029    0.324555    0.773015    0.177531    2.348372    -0.550316    -0.517286    2.693598    -0.169907    2.508715    -2.182650    -2.178694    2.648202    -1.451349    -2.274027    2.012526    3.043882    -12.096014    -83.337250    27.698633    -2.722250    12.503228    -1.373237    -3.403405    -1.918113    -25.727276    10.555788    -4.115324    3.108021    -1.396510    0.000000    0.000000    0.000000    0.000000    0.000000    0.000000    -14.378948    2.973429    -11.438787    -29.353642    0.000000    0.000000    -14.676821    0.000000    0.000000    -25.326166    -1.294901    -2.011631    -50.695538    0.000000    0.000000    -25.347769    0.000000    0.000000    -35.501251    -7.220446    6.496160    -72.037415    0.000000    0.000000    -36.018707    0.000000    0.000000    -45.167484    -14.740694    14.195842    -94.026039    0.000000    0.000000    -47.013020    0.000000    0.000000    -4.051392    -3.279540    2.357353    90.754250    50.024094    -5.966128    -12.604239    -19.526381    3.370376    14.137479    -36.509552    -3.307550    4.341568    -3.168568    8.245471    0.000000    0.000000    0.000000    0.000000    0.000000    0.000000    0.506490    0.031184    3.523118    1.014897    0.000000    -0.000000    0.507448    0.000000    -0.000000    3.503694    -0.726186    -4.584635    7.122950    0.000000    -0.000000    3.561473    0.000000    -0.000000    6.365300    -1.897583    -12.645039    13.230998    0.000000    -0.000000    6.615499    0.000000    -0.000000    9.114859    -3.510203    -20.887594    19.524139    0.000000    -0.000000    9.762070    0.000000    -0.000000    -2.636052    -9.098022    -3.703766    0.019040    17.382187    10.344703    -0.988119    -8.193098    -5.033322    0.118861    0.168132    -0.273740    0.135542    -8.524314    1.154655    1.251295    20.573637    -10.638862    2.430134    -13.016560    7.368729    -0.256718    -1.919274    0.211570    
0.517658    81.349258    105.660995    0.126602    0.329667    0.603277    0.125960    2.362700    -0.564465    -0.555142    2.637753    -0.174314    2.526480    -2.113049    -2.146706    2.709885    -1.401077    -2.245714    2.035855    3.091887    -11.959374    -83.392929    27.803635    -2.600923    12.547284    -1.738250    -3.474467    -2.066519    -25.898996    10.607500    -4.084704    3.068605    -1.407356    0.000000    0.000000    0.000000    0.000000    0.000000    0.000000    -14.244791    2.974851    -11.553521    -29.091625    0.000000    0.000000    -14.545815    0.000000    0.000000    -25.342278    -1.304444    -2.081734    -50.726223    0.000000    0.000000    -25.363108    0.000000    0.000000    -35.661152    -7.270853    6.453059    -72.360809    0.000000    0.000000    -36.180408    0.000000    0.000000    -45.470657    -14.856223    14.155695    -94.651016    0.000000    0.000000    -47.325508    0.000000    0.000000    -4.037217    -3.243919    2.319602    90.708755    49.903744    -5.877671    -12.465336    -19.415861    3.212135    13.942523    -36.389957    -3.591954    4.383835    -3.139022    8.231865    0.000000    0.000000    0.000000    0.000000    0.000000    0.000000    0.300704    0.019188    3.651092    0.602632    0.000000    -0.000000    0.301316    0.000000    -0.000000    3.458026    -0.741640    -4.484910    7.034099    0.000000    -0.000000    3.517050    0.000000    -0.000000    6.477184    -1.940389    -12.570143    13.465564    0.000000    -0.000000    6.732784    0.000000    -0.000000    9.383035    -3.605058    -20.832727    20.091925    0.000000    -0.000000    10.045962    0.000000    -0.000000    -2.722985    -9.015945    -3.736793    -0.077982    17.261726    10.508631    -0.970908    -8.198982    -4.968853    0.125693    0.223440    -0.283716    -0.001859    -8.936529    1.346301    1.349414    21.383944    -10.733205    2.533779    -13.361452    7.435719    -0.253733    -1.928293    0.205875    
0.607173    81.318359    105.678513    0.196358    0.331820    0.437710    0.071348    2.386359    -0.583737    -0.593174    2.575677    -0.180804    2.540731    -2.054018    -2.112658    2.768339    -1.340542    -2.215870    2.059183    3.139549    -11.825706    -83.448456    27.899212    -2.478962    12.581508    -2.108716    -3.544669    -2.236484    -26.065578    10.662897    -4.056900    3.023580    -1.429196    0.000000    0.000000    0.000000    0.000000    0.000000    0.000000    -14.123896    2.973411    -11.648301    -28.854519    0.000000    0.000000    -14.427259    0.000000    0.000000    -25.377844    -1.327573    -2.129435    -50.796978    0.000000    0.000000    -25.398489    0.000000    0.000000    -35.845078    -7.346817    6.432275    -72.739441    0.000000    0.000000    -36.369720    0.000000    0.000000    -45.801872    -15.009995    14.135313    -95.346809    0.000000    0.000000    -47.673405    0.000000    0.000000    -4.028545    -3.210583    2.284299    90.678490    49.797318    -5.798886    -12.327501    -19.342390    3.056775    13.749967    -36.289047    -3.873145    4.420964    -3.108740    8.212817    0.000000    0.000000    0.000000    0.000000    0.000000    0.000000    0.106302    0.006983    3.758427    0.213062    0.000000    -0.000000    0.106531    0.000000    -0.000000    3.421958    -0.758338    -4.398813    6.964635    0.000000    -0.000000    3.482317    0.000000    -0.000000    6.596892    -1.984968    -12.501779    13.716207    0.000000    -0.000000    6.858103    0.000000    -0.000000    9.657339    -3.701696    -20.776899    20.672371    0.000000    -0.000000    10.336185    0.000000    -0.000000    -2.812144    -8.931936    -3.746260    -0.170417    17.138577    10.684154    -0.948808    -8.198725    -4.944269    0.131493    0.270855    -0.292111    -0.138033    -9.346195    1.511900    1.434844    22.191196    -10.788804    2.632789    -13.696948    7.481559    -0.251248    -1.938323    0.200871    
0.695168    81.286873    105.693604    0.274255    0.332025    0.280201    0.011025    2.422816    -0.612729    -0.632570    2.503712    -0.190403    2.549754    -2.013472    -2.075043    2.820555    -1.263201    -2.183052    2.082961    3.185268    -11.698362    -83.504066    27.976456    -2.355963    12.599147    -2.484296    -3.611204    -2.447638    -26.223051    10.723349    -4.032694    2.968266    -1.469092    0.000000    0.000000    0.000000    0.000000    0.000000    0.000000    -14.025028    2.967418    -11.708495    -28.658709    0.000000    0.000000    -14.329354    0.000000    0.000000    -25.445377    -1.372502    -2.140354    -50.933674    0.000000    0.000000    -25.466835    0.000000    0.000000    -36.068535    -7.463422    6.446382    -73.208641    0.000000    0.000000    -36.604317    0.000000    0.000000    -46.179588    -15.224056    14.143963    -96.158607    0.000000    0.000000    -48.079300    0.000000    0.000000    -4.028004    -3.180897    2.252696    90.672752    49.714584    -5.734961    -12.190897    -19.331724    2.908596    13.562422    -36.222862    -4.149366    4.446627    -3.076255    8.180753    0.000000    0.000000    0.000000    0.000000    0.000000    0.000000    -0.071167    -0.004764    3.829551    0.000000    0.000000    0.000000    0.000000    0.000000    0.000000    3.401624    -0.776986    -4.336454    7.022645    0.000000    -0.000000    3.511323    0.000000    -0.000000    6.731066    -2.033088    -12.444492    14.045291    0.000000    -0.000000    7.022645    0.000000    -0.000000    9.944986    -3.802670    -20.718870    21.280743    0.000000    -0.000000    10.640371    0.000000    -0.000000    -2.906292    -8.848824    -3.715572    -0.254945    17.013594    10.873796    -0.918545    -8.188983    -4.982994    0.135627    0.305303    -0.298007    -0.274724    -9.755618    1.629874    1.495521    22.996880    -10.772959    2.723074    -14.017250    7.485727    -0.249569    -1.949935    0.196993    
